# xmcd
#
# Track frame offsets: 
#        150
#        12599
#        28663
#        44863
#        94095
#        113533
#        144629
#        159469
#        169681
#        183939
#        198229
#        211573
#        225761
#        260237
#        303359
#        317159
#
# Disc length: 4406 seconds
#
# Revision: 0
# Processed by: cddbd v1.5.2PL0 Copyright (c) Steve Scherf et al.
# Submitted via: ExactAudioCopy v0.99pb5
#
DISCID=d2113410
DTITLE=Various Artist - Blue And Lonesome
DYEAR=2006
DGENRE=Blues
TTITLE0=Jimmy Reed - Caress Me Baby
TTITLE1=The Yarbirds and Eric Clapton - Louise
TTITLE2=Elmore James - You Know You Done Me Wrong
TTITLE3=Eric Burdon - Crawling Kingsnake
TTITLE4=John Mayall and The Bluesbreakers - It Ain't Right
TTITLE5=Muddy Waters - Long Distance Call
TTITLE6=Lightnin' Hopkins - Stool Pigeon Blues
TTITLE7=Ray Charles - Sittin' On Top Of The World
TTITLE8=Memphis Slim - Blue And Lonesome
TTITLE9=Bessie Smith - I Ain't Got Nobody
TTITLE10=Son House - Walking Blues
TTITLE11=John Lee Hooker - Boogie Chillen
TTITLE12=Bo Diddley - The Animals
TTITLE13=Van Morrison - T B Sheets
TTITLE14=Joe Turner - Miss Brown Blues
TTITLE15=Howlin' Wolf - California Boogie
EXTD=
EXTT0=
EXTT1=
EXTT2=
EXTT3=
EXTT4=
EXTT5=
EXTT6=
EXTT7=
EXTT8=
EXTT9=
EXTT10=
EXTT11=
EXTT12=
EXTT13=
EXTT14=
EXTT15=
PLAYORDER=
